<svg xmlns="http://www.w3.org/2000/svg" viewBox="0 0 1000 800">
  <style>
    .box { fill: #f0f0f0; stroke: #333; stroke-width: 2; }
    .label { font-family: Arial, sans-serif; font-size: 14px; text-anchor: middle; }
    .arrow { fill: none; stroke: #666; stroke-width: 2; marker-end: url(#arrowhead); }
    .group { fill: #e6f3ff; stroke: #3399ff; stroke-width: 2; stroke-dasharray: 5,5; }
  </style>
  
  <defs>
    <marker id="arrowhead" markerWidth="10" markerHeight="7" refX="0" refY="3.5" orient="auto">
      <polygon points="0 0, 10 3.5, 0 7" />
    </marker>
  </defs>
  
  <rect x="20" y="20" width="960" height="760" rx="20" ry="20" class="group" />
  <text x="500" y="50" class="label" font-size="20">RevAi System</text>
  
  <rect x="50" y="100" width="120" height="60" class="box" />
  <text x="110" y="135" class="label">IoT Devices</text>
  
  <rect x="250" y="100" width="120" height="60" class="box" />
  <text x="310" y="135" class="label">API Gateway</text>
  
  <rect x="450" y="100" width="120" height="60" class="box" />
  <text x="510" y="135" class="label">Load Balancer</text>
  
  <rect x="250" y="250" width="120" height="60" class="box" />
  <text x="310" y="285" class="label">Data Ingestion</text>
  
  <rect x="450" y="250" width="120" height="60" class="box" />
  <text x="510" y="285" class="label">Data Processing</text>
  
  <rect x="650" y="250" width="120" height="60" class="box" />
  <text x="710" y="285" class="label">Data Storage</text>
  
  <rect x="250" y="400" width="120" height="60" class="box" />
  <text x="310" y="435" class="label">ML Model</text>
  
  <rect x="450" y="400" width="120" height="60" class="box" />
  <text x="510" y="435" class="label">Prediction Engine</text>
  
  <rect x="650" y="400" width="120" height="60" class="box" />
  <text x="710" y="435" class="label">Alert System</text>
  
  <rect x="250" y="550" width="120" height="60" class="box" />
  <text x="310" y="585" class="label">Dashboard</text>
  
  <rect x="450" y="550" width="120" height="60" class="box" />
  <text x="510" y="585" class="label">Reporting</text>
  
  <rect x="650" y="550" width="120" height="60" class="box" />
  <text x="710" y="585" class="label">User Management</text>
  
  <rect x="830" y="250" width="120" height="60" class="box" />
  <text x="890" y="285" class="label">Celery Workers</text>
  
  <rect x="830" y="400" width="120" height="60" class="box" />
  <text x="890" y="435" class="label">Redis</text>
  
  <line x1="170" y1="130" x2="250" y2="130" class="arrow" />
  <line x1="370" y1="130" x2="450" y2="130" class="arrow" />
  <line x1="510" y1="160" x2="510" y2="250" class="arrow" />
  <line x1="370" y1="280" x2="450" y2="280" class="arrow" />
  <line x1="570" y1="280" x2="650" y2="280" class="arrow" />
  <line x1="310" y1="310" x2="310" y2="400" class="arrow" />
  <line x1="370" y1="430" x2="450" y2="430" class="arrow" />
  <line x1="570" y1="430" x2="650" y2="430" class="arrow" />
  <line x1="710" y1="310" x2="710" y2="400" class="arrow" />
  <line x1="310" y1="460" x2="310" y2="550" class="arrow" />
  <line x1="370" y1="580" x2="450" y2="580" class="arrow" />
  <line x1="570" y1="580" x2="650" y2="580" class="arrow" />
  <line x1="770" y1="280" x2="830" y2="280" class="arrow" />
  <line x1="890" y1="310" x2="890" y2="400" class="arrow" />
</svg>
